<?xml version="1.0" standalone="no"?>
<!DOCTYPE svg PUBLIC "-//W3C//DTD SVG 20010904//EN"
 "http://www.w3.org/TR/2001/REC-SVG-20010904/DTD/svg10.dtd">
<svg version="1.0" xmlns="http://www.w3.org/2000/svg"
 width="1600.000000pt" height="1600.000000pt" viewBox="0 0 1600.000000 1600.000000"
 preserveAspectRatio="xMidYMid meet">
<metadata>
Created by potrace 1.14, written by Peter Selinger 2001-2017
</metadata>
<g transform="translate(0.000000,1600.000000) scale(0.100000,-0.100000)"
fill="#000000" stroke="none">
<path d="M0 8000 l0 -8000 4786 0 c4197 0 4785 2 4774 15 -6 8 -22 17 -33 21
-24 8 -46 32 -47 52 0 7 -10 33 -22 59 -23 48 -28 103 -15 161 3 18 3 31 -2
28 -9 -6 -25 49 -22 72 1 7 -7 28 -19 47 -22 35 -20 55 5 55 34 0 59 106 35
149 -7 14 -4 24 10 41 11 12 17 27 13 33 -3 5 -10 3 -15 -7 -5 -9 -16 -16 -23
-16 -8 0 -15 -9 -15 -20 0 -27 -25 -36 -56 -20 -21 12 -27 11 -47 -8 l-23 -22
-34 25 c-27 20 -42 24 -75 20 -147 -18 -212 -26 -223 -27 -21 -2 -151 66 -151
78 -2 40 -106 12 -117 -30 -6 -25 -10 -26 -73 -27 l-66 0 -49 -62 c-65 -82
-104 -113 -119 -98 -18 18 37 114 94 162 36 30 50 50 56 79 10 48 121 181 181
217 23 14 42 31 42 39 0 7 27 27 60 44 74 37 141 41 168 9 9 -12 23 -27 30
-34 6 -8 12 -18 12 -24 0 -6 7 -26 15 -46 8 -19 22 -51 30 -70 18 -42 57 -49
76 -14 20 38 18 149 -2 191 -11 21 -19 43 -19 50 0 19 -77 88 -97 88 -10 0
-34 -5 -53 -10 -30 -9 -37 -8 -52 10 -14 17 -14 25 -5 53 7 17 18 36 24 40 19
12 16 35 -7 54 -11 10 -20 22 -20 28 0 13 -162 165 -176 165 -5 0 -38 11 -73
25 -34 13 -90 26 -124 29 -83 6 -215 34 -252 53 -58 31 -141 55 -206 60 -57 4
-89 13 -138 39 -35 19 -75 34 -88 34 -13 0 -33 5 -44 11 -16 8 -28 6 -55 -10
-47 -28 -54 -27 -54 10 l0 31 -52 -4 c-52 -3 -53 -2 -63 29 -6 17 -17 40 -26
50 -31 37 -40 73 -28 110 6 20 9 56 5 82 -5 39 -2 52 19 84 14 20 23 42 20 47
-3 6 -3 15 1 22 9 14 9 106 0 175 -4 26 -8 80 -10 118 -2 39 -5 75 -7 80 -2 6
1 36 5 67 8 63 30 88 76 88 30 0 50 17 50 42 0 10 14 25 31 33 17 9 46 32 65
52 32 33 98 122 99 133 1 18 51 90 64 92 27 6 93 -21 128 -52 79 -70 119 -45
145 91 30 154 38 215 45 340 6 115 5 123 -10 110 -9 -7 -14 -18 -11 -23 3 -5
-3 -8 -13 -6 -11 2 -26 -2 -34 -9 -24 -20 -39 0 -41 55 -2 34 -7 52 -15 52 -8
0 -13 14 -13 39 0 22 -5 42 -12 44 -9 4 -10 8 -3 14 6 4 9 19 8 33 -1 14 -5
54 -8 90 -3 36 -6 70 -6 75 -1 6 2 32 6 59 6 36 5 47 -4 42 -6 -4 -11 -1 -11
9 0 9 5 13 10 10 6 -3 10 2 10 11 0 10 -3 14 -7 11 -11 -11 -33 66 -28 94 7
33 -10 47 -58 45 -25 -1 -36 3 -33 11 3 7 -1 10 -12 7 -14 -5 -13 -3 2 10 11
9 22 12 25 7 4 -5 15 -2 26 6 20 15 20 15 -1 9 -27 -8 -42 21 -17 31 10 4 30
20 45 35 15 16 28 26 28 22 0 -4 8 2 18 12 35 39 152 147 152 141 0 -3 -12
-18 -27 -32 -15 -14 -23 -25 -18 -25 15 0 105 101 99 111 -3 5 3 9 12 9 10 0
15 -3 11 -6 -3 -4 0 -13 8 -20 14 -14 9 -54 -6 -54 -5 0 -9 -4 -9 -10 0 -5 7
-10 17 -10 14 0 14 -2 -3 -21 -10 -12 -17 -32 -16 -45 2 -13 -2 -24 -8 -24 -6
0 -8 -5 -4 -11 4 -7 8 -63 9 -127 2 -94 5 -116 19 -124 9 -5 16 -20 16 -34 0
-18 7 -28 20 -31 27 -7 20 -26 -11 -33 -16 -4 -25 -14 -27 -30 -2 -13 -11 -29
-19 -35 -8 -6 -13 -22 -11 -35 5 -37 56 -45 207 -32 130 12 268 45 316 76 31
20 75 108 75 149 0 20 -13 41 -48 75 -40 41 -56 49 -107 59 -68 12 -108 11
-127 -4 -14 -11 -75 -10 -86 2 -4 3 1 11 11 16 21 12 22 38 2 45 -8 4 -15 14
-15 23 0 20 47 66 77 75 37 12 82 63 76 86 -4 15 2 22 23 30 39 15 56 41 37
55 -14 10 -13 15 1 44 10 17 24 35 32 38 7 3 14 16 14 29 0 22 31 64 85 116
11 11 32 22 47 25 15 3 25 9 22 14 -5 9 0 11 29 13 6 1 15 5 19 10 3 5 26 5
55 -2 263 -57 271 -58 279 -37 8 20 -28 59 -69 75 -78 30 -87 36 -87 53 0 11
-8 31 -18 45 -41 62 -47 80 -29 100 10 11 17 35 17 59 0 30 8 50 36 86 20 26
43 47 51 47 7 0 19 12 25 28 7 15 21 35 32 44 17 13 21 27 19 65 -3 62 22 144
49 164 18 14 19 20 11 46 -21 59 5 156 41 152 6 -1 24 -1 39 0 22 1 27 5 23
19 -3 9 1 30 9 45 8 15 12 34 8 42 -3 9 1 15 11 15 12 0 16 10 16 41 0 32 3
40 15 35 9 -3 15 0 15 8 0 7 9 25 20 39 25 32 25 53 1 69 -11 6 -17 18 -13 26
6 17 -57 77 -103 98 -16 7 -26 13 -21 14 16 0 -16 30 -33 30 -9 0 -32 13 -51
28 l-33 29 30 31 c18 20 40 32 54 31 13 0 18 -3 12 -6 -22 -8 -14 -25 8 -18
13 4 27 1 39 -10 10 -9 22 -15 27 -12 13 8 40 -16 40 -35 0 -9 -3 -17 -6 -16
-20 2 -22 -4 -5 -17 21 -16 38 -20 30 -6 -3 4 5 6 17 4 13 -3 29 2 36 10 10
13 9 15 -8 10 -22 -6 -25 4 -15 45 4 12 13 22 21 22 9 0 13 -6 9 -15 -4 -11 2
-15 24 -15 22 0 41 -11 70 -40 22 -22 44 -40 48 -40 5 0 17 9 28 21 15 16 16
24 7 39 -10 14 -9 19 2 24 9 3 12 12 8 23 -9 23 -33 48 -33 34 0 -6 -9 -11
-20 -11 -22 0 -27 15 -8 23 9 4 8 6 -2 6 -9 1 -26 -6 -38 -15 -15 -10 -22 -11
-20 -3 2 7 -14 16 -37 21 -22 5 -44 13 -49 18 -13 13 -49 13 -42 1 3 -5 -10
-9 -30 -9 -30 0 -38 5 -51 34 -9 18 -20 31 -25 28 -5 -4 -12 3 -15 15 -3 12
-9 21 -13 21 -12 0 -30 58 -30 94 0 25 -11 40 -51 76 -61 54 -61 54 -99 105
-16 22 -34 45 -40 52 -12 15 -2 43 16 43 8 0 14 -4 14 -9 0 -12 109 -66 117
-57 10 10 -20 59 -39 64 -10 2 -18 10 -18 17 0 7 -6 18 -14 24 -8 7 -22 38
-32 69 -10 31 -28 81 -41 110 -17 39 -22 64 -17 90 11 68 10 67 70 69 31 1 61
6 67 12 17 17 29 13 22 -9 -5 -16 -2 -20 14 -20 12 0 21 6 21 15 0 9 12 26 27
39 26 23 25 53 -3 42 -9 -4 -13 2 -11 17 2 18 -3 22 -25 23 -34 1 -59 21 -51
41 3 8 1 18 -6 22 -9 6 -9 14 0 35 11 23 10 29 -9 49 -28 30 -29 57 -2 57 27
0 36 26 23 61 -6 16 -8 29 -4 29 8 0 28 107 29 157 1 18 -3 35 -8 38 -6 4 -7
24 -4 46 5 32 4 39 -10 39 -23 0 -20 19 10 46 26 25 44 31 44 14 0 -5 7 -10
15 -10 8 0 15 -6 15 -13 0 -6 15 -26 34 -44 33 -29 36 -30 50 -14 15 16 13 21
-20 60 -26 30 -43 41 -55 38 -12 -3 -19 0 -19 10 0 8 -16 31 -35 50 -19 19
-35 38 -35 42 0 3 -14 21 -31 39 -23 26 -33 31 -43 23 -8 -6 -20 -9 -29 -5 -8
3 -25 -3 -36 -13 -12 -10 -24 -16 -28 -15 -3 2 -10 -2 -14 -10 -7 -10 -12 -11
-26 0 -10 6 -29 18 -43 24 -14 7 -27 16 -30 19 -3 4 -29 11 -58 17 -51 9 -52
9 -52 -14 0 -17 -12 -32 -42 -51 -24 -15 -51 -27 -61 -28 -10 -1 -25 -11 -33
-23 -14 -20 -51 -21 -38 -1 5 8 -18 9 -137 9 -29 0 -37 3 -35 17 0 10 -7 19
-19 21 -11 2 -24 11 -28 18 -5 8 -12 12 -18 9 -19 -12 -48 5 -44 26 2 12 -5
30 -15 42 -11 11 -20 26 -20 31 0 6 -9 17 -21 24 -14 9 -18 19 -14 32 4 14 2
20 -9 20 -19 0 -21 11 -5 27 8 8 6 17 -10 34 -11 13 -21 33 -21 45 0 12 -4 24
-10 26 -5 2 -11 13 -13 25 -1 11 -9 28 -16 36 -10 13 -9 17 2 24 20 11 4 55
-18 47 -23 -9 -18 6 11 32 14 14 36 24 52 23 21 -1 22 -2 7 -6 -11 -3 -24 -10
-30 -15 -7 -7 -1 -8 20 -3 38 9 39 9 26 34 -8 14 -8 22 0 26 6 4 8 13 5 21 -3
8 4 23 15 33 12 11 19 25 16 33 -2 7 5 30 16 50 17 32 18 42 8 82 -8 31 -8 53
-1 72 6 15 8 34 5 44 -4 12 1 19 14 23 14 3 18 11 14 26 -4 16 -1 21 15 21 11
0 24 6 29 13 14 17 12 47 -3 47 -17 0 -22 29 -16 89 4 42 8 51 24 51 15 0 18
6 14 33 -5 47 -17 90 -29 105 -6 8 -6 12 1 12 5 0 8 9 5 20 -3 11 -11 20 -18
20 -7 0 -16 7 -19 16 -3 8 -10 12 -16 9 -5 -3 -10 1 -10 10 0 8 -12 20 -26 25
-18 7 -24 15 -20 26 3 9 6 25 6 36 0 17 3 18 15 8 8 -7 21 -10 29 -7 8 3 25
-2 38 -12 45 -34 57 -33 69 7 15 53 9 94 -16 99 -52 10 -166 4 -182 -8 -11 -9
-14 -9 -10 -2 11 17 -93 4 -111 -14 -9 -9 -22 -11 -36 -6 -11 4 -33 7 -48 8
-14 0 -30 3 -34 8 -4 4 -15 7 -25 7 -12 0 -16 5 -13 14 3 7 -2 16 -10 19 -9 4
-16 14 -16 24 0 10 -7 31 -15 46 -8 15 -12 34 -8 42 3 8 0 15 -6 15 -7 0 -14
8 -18 18 -3 9 -12 25 -20 34 -10 11 -12 22 -5 35 5 10 7 24 5 31 -3 8 4 16 16
19 12 3 20 10 19 17 -2 15 34 86 44 86 5 0 6 5 3 10 -3 6 -2 10 4 10 16 0 25
61 10 71 -12 8 -12 10 0 18 10 6 10 10 1 16 -6 4 -9 18 -6 33 3 15 0 36 -7 48
-60 102 -88 168 -81 193 4 14 6 32 5 39 -1 6 9 16 22 21 20 8 25 19 31 61 4
28 11 48 16 45 6 -4 10 -1 10 4 0 6 7 11 15 11 23 0 18 28 -7 42 -43 23 -141
27 -189 8 -16 -7 -29 -16 -29 -21 0 -22 -41 -49 -64 -43 -27 6 -86 -30 -86
-53 0 -8 -7 -16 -15 -19 -8 -4 -15 -17 -15 -29 0 -18 -8 -26 -35 -35 -19 -6
-41 -21 -49 -32 -8 -11 -19 -17 -25 -13 -7 4 -11 -5 -11 -24 0 -45 -17 -81
-38 -81 -10 0 -26 -8 -36 -18 -9 -11 -31 -19 -51 -20 -19 -1 -44 -6 -55 -12
-21 -11 -28 -40 -10 -40 6 0 10 -7 10 -16 0 -11 -6 -15 -20 -11 -16 4 -20 0
-20 -18 0 -43 -59 -59 -74 -19 -4 10 -13 13 -30 8 -20 -5 -31 3 -66 48 -42 53
-80 81 -103 76 -6 -1 -34 4 -60 12 -35 11 -49 21 -53 37 -4 13 -10 23 -15 23
-5 0 -9 8 -9 17 0 9 -15 29 -32 44 -29 24 -31 30 -21 47 9 16 9 21 0 25 -7 3
-13 16 -15 31 -1 20 4 27 23 32 14 3 25 12 25 19 0 9 14 13 43 11 31 -1 42 3
42 14 0 11 -13 16 -45 18 -26 2 -48 10 -53 18 -10 18 -37 18 -37 0 0 -18 -44
-24 -88 -13 -21 5 -45 4 -64 -2 -17 -6 -48 -11 -70 -11 -35 0 -39 3 -45 32 -6
29 -7 30 -14 10 -5 -13 -17 -22 -29 -22 -27 0 -43 -41 -30 -76 6 -14 10 -32
10 -40 0 -18 -26 -18 -33 0 -3 7 -18 13 -34 14 -44 0 -49 2 -33 12 12 7 12 12
3 21 -9 9 -15 9 -27 0 -8 -7 -20 -10 -26 -6 -5 3 -10 2 -10 -4 0 -5 10 -11 23
-13 18 -2 23 -10 25 -46 3 -41 2 -43 -17 -33 -11 6 -38 11 -59 11 -35 0 -47 7
-94 53 -58 58 -154 165 -189 211 l-22 28 21 -6 c32 -11 27 5 -18 52 -22 22
-40 45 -40 51 0 16 -70 19 -79 3 -7 -12 -18 -5 -55 32 -26 25 -44 51 -41 56 3
6 1 10 -5 10 -6 0 -24 13 -40 30 -22 23 -37 29 -64 28 -27 -1 -36 -6 -36 -18
0 -12 -8 -17 -26 -17 -14 0 -37 -12 -52 -26 -15 -13 -33 -22 -40 -20 -8 3 -23
-5 -34 -17 -13 -14 -24 -18 -30 -12 -7 7 -23 5 -47 -5 -20 -9 -38 -15 -41 -16
-16 0 -57 -24 -68 -39 -7 -10 -26 -18 -41 -18 -16 0 -40 -9 -55 -21 -14 -11
-30 -17 -36 -14 -6 3 -13 0 -16 -9 -3 -8 -12 -12 -20 -9 -7 3 -28 -9 -45 -26
-37 -37 -56 -39 -69 -7 -9 24 -45 54 -91 73 -24 10 -105 3 -128 -12 -5 -2 -35
0 -67 6 -32 6 -83 12 -112 14 -53 4 -98 25 -84 40 12 13 -108 -2 -124 -16 -10
-8 -47 -14 -98 -14 -62 -1 -91 -6 -125 -23 -32 -16 -47 -19 -52 -11 -4 7 -28
12 -53 12 -31 0 -46 4 -46 13 0 7 5 16 10 19 6 3 10 13 10 22 0 12 -7 14 -35
9 -21 -4 -35 -3 -35 3 0 6 -9 15 -20 21 -16 8 -27 7 -50 -7 -17 -9 -30 -21
-30 -25 0 -5 -11 -13 -25 -18 -29 -11 -44 -39 -26 -50 10 -5 9 -9 -3 -13 -13
-5 -16 1 -17 26 0 18 -3 26 -6 19 -13 -32 -23 7 -23 88 0 79 3 92 22 110 23
21 18 41 -5 22 -8 -7 -17 -9 -20 -5 -4 3 -7 466 -7 1028 0 1069 -1 1046 40
1130 5 11 25 65 45 119 19 55 39 104 44 110 5 6 20 47 34 91 14 44 50 145 81
225 31 80 59 160 62 179 4 19 17 50 30 69 13 19 24 40 24 47 0 7 7 26 15 41 8
16 15 36 15 44 0 8 14 42 30 75 17 33 30 66 30 74 0 13 26 76 82 201 11 25 35
86 53 135 36 100 128 321 181 433 19 40 34 77 34 84 0 6 14 40 30 76 17 35 42
94 56 131 13 36 33 82 43 101 11 19 49 108 85 198 36 89 73 176 81 192 8 16
15 31 15 35 0 3 -1114 5 -2475 5 l-2475 0 0 -8000z m6072 2635 c34 -14 80 -25
103 -25 26 0 48 -6 55 -15 7 -8 17 -15 22 -15 6 0 5 7 -2 15 -28 34 15 30 60
-4 20 -16 22 -22 11 -35 -11 -13 -10 -21 3 -47 29 -58 18 -98 -24 -92 -14 2
-56 6 -95 9 -69 6 -70 7 -96 48 -15 22 -32 52 -39 66 -7 14 -20 34 -30 45 -32
37 -53 75 -41 75 6 0 39 -11 73 -25z m108 -234 c0 -10 -30 -24 -37 -17 -3 3
-2 9 2 15 8 13 35 15 35 2z m725 -19 c18 8 28 7 48 -8 64 -48 56 -93 -10 -53
-59 35 -83 56 -75 63 3 4 8 3 10 -3 2 -7 11 -6 27 1z m1552 -854 c-3 -8 -6 -5
-6 6 -1 11 2 17 5 13 3 -3 4 -12 1 -19z m-1583 -532 c3 -13 15 -26 26 -29 13
-3 18 -10 14 -21 -7 -18 20 -23 31 -6 3 6 15 10 26 10 10 0 19 -4 19 -10 0 -5
-8 -10 -17 -10 -12 0 -14 -3 -6 -11 8 -8 17 -7 34 1 19 10 24 10 34 -4 17 -22
52 -20 65 5 11 19 13 19 29 5 10 -9 24 -16 32 -16 19 0 38 -19 35 -34 -2 -6
-1 -7 2 -3 2 5 13 1 23 -9 16 -14 21 -15 35 -4 13 11 17 11 24 1 6 -11 15 -11
41 -2 32 11 54 6 32 -7 -6 -4 -9 -19 -6 -33 4 -19 10 -25 23 -22 10 3 20 -2
23 -11 11 -27 30 -19 23 9 -6 23 -5 24 13 13 10 -6 17 -18 14 -25 -3 -7 0 -13
6 -13 6 0 11 -6 11 -13 0 -7 7 -22 15 -33 12 -15 16 -16 24 -5 5 7 14 10 21 6
20 -12 -20 -47 -47 -40 -37 9 -26 -15 15 -32 48 -20 46 -16 28 -52 -18 -34
-21 -55 -6 -46 5 3 7 0 4 -9 -3 -9 3 -20 15 -28 29 -18 26 -33 -9 -65 -35 -31
-37 -39 -9 -46 l20 -6 -20 -20 c-13 -13 -27 -18 -41 -14 -20 5 -21 4 -11 -16
7 -11 16 -21 21 -21 6 0 10 -7 10 -16 0 -12 -9 -14 -44 -11 -25 3 -49 8 -56
12 -6 4 -17 2 -25 -5 -9 -8 -15 -8 -20 0 -3 6 -11 8 -16 4 -6 -4 -6 -11 2 -20
16 -20 11 -23 -52 -30 -30 -3 -55 -10 -57 -15 -8 -20 -23 -8 -16 14 6 21 6 21
-13 5 -18 -17 -20 -16 -39 5 -10 12 -22 31 -26 42 -5 17 -6 17 -7 3 -1 -10 -8
-18 -16 -18 -8 0 -15 -7 -15 -16 0 -11 6 -15 20 -11 23 6 25 -2 7 -27 -13 -18
-15 -17 -40 10 -32 34 -47 24 -24 -15 16 -28 16 -28 -9 -23 -19 3 -24 9 -21
23 4 15 0 19 -25 19 -16 0 -36 -7 -44 -15 -18 -18 -34 -20 -34 -4 0 6 9 13 20
16 11 3 20 9 20 14 0 5 9 9 20 9 11 0 20 4 20 9 0 11 -65 3 -92 -10 -23 -12
-28 -11 -28 4 0 8 -15 13 -40 14 -34 2 -40 -1 -40 -18 0 -10 -4 -19 -10 -19
-5 0 -10 6 -10 14 0 19 -28 28 -51 16 -17 -10 -20 -7 -25 20 -7 33 -18 39 -28
14 -4 -9 -13 -14 -21 -10 -8 3 -15 1 -15 -3 0 -5 -20 -11 -45 -13 -42 -3 -45
-1 -51 25 -4 18 -11 27 -22 25 -12 -2 -18 5 -20 23 -2 21 -7 26 -23 22 -22 -6
-24 -14 -6 -32 10 -11 9 -13 -6 -7 -10 3 -28 6 -40 6 l-22 1 23 18 c12 11 22
30 22 43 l-1 23 -19 -24 c-16 -18 -26 -22 -46 -17 -21 6 -25 4 -21 -8 4 -10 1
-16 -8 -16 -8 0 -15 6 -15 14 0 7 -9 16 -20 19 -29 8 -27 54 3 60 16 3 14 5
-9 6 l-32 1 3 56 c3 51 2 55 -17 52 -21 -3 -38 -48 -18 -48 6 0 10 -14 10 -31
0 -26 -3 -29 -20 -24 -15 5 -20 2 -20 -11 0 -14 -3 -15 -12 -6 -9 9 -9 17 2
36 10 19 10 29 2 39 -7 8 -8 17 -4 21 4 4 7 11 7 15 0 13 30 38 41 34 18 -6
32 20 23 42 -6 15 -8 16 -8 4 -1 -22 -30 -33 -37 -14 -4 8 -14 15 -24 15 -11
0 -21 4 -25 9 -8 15 15 25 28 12 20 -20 29 -12 22 19 -4 17 -3 30 2 29 19 -3
23 2 13 21 -7 12 -7 20 -1 20 16 0 24 -42 10 -51 -16 -10 -6 -22 21 -24 17 -1
20 5 20 46 0 28 -5 50 -12 53 -7 4 -3 4 9 2 28 -5 39 10 22 30 -10 12 -10 17
0 27 10 9 15 8 26 -7 18 -23 35 -12 35 22 0 15 4 33 9 41 7 11 10 9 16 -8 8
-28 25 -27 18 0 -6 20 -3 21 23 15 27 -7 28 -7 11 12 -9 10 -17 24 -17 30 0
20 32 13 37 -8 3 -11 10 -20 15 -20 6 0 8 7 4 15 -4 10 1 15 14 15 11 0 20 -5
20 -11 0 -8 4 -8 14 0 7 6 20 9 28 6 10 -4 17 1 21 14 3 12 13 21 22 21 12 0
16 -6 12 -19 -5 -21 15 -23 35 -3 9 9 8 12 -7 13 -12 1 -8 4 10 8 42 10 53 4
47 -26 -3 -18 -1 -24 7 -19 6 4 9 12 6 17 -3 5 1 6 9 3 12 -5 16 0 16 17 0 18
3 20 12 11 7 -7 21 -12 33 -12 11 0 26 -9 33 -20 7 -11 18 -17 27 -14 14 6 13
11 -4 40 -20 33 -20 34 -2 34 11 0 21 -9 25 -24z m402 -97 l29 -31 -25 7 c-25
7 -50 31 -50 47 0 16 17 7 46 -23z m-1083 -276 c-7 -2 -19 -2 -25 0 -7 3 -2 5
12 5 14 0 19 -2 13 -5z m1387 -113 c0 -5 -4 -10 -10 -10 -5 0 -10 5 -10 10 0
6 5 10 10 10 6 0 10 -4 10 -10z m-1307 -47 c-16 -6 -17 -33 -2 -33 5 0 7 -4 4
-10 -14 -22 -35 -10 -35 20 0 25 4 30 23 29 12 0 16 -3 10 -6z m1314 -49 c-9
-9 -28 6 -21 18 4 6 10 6 17 -1 6 -6 8 -13 4 -17z m48 -14 c3 -5 -1 -10 -9
-10 -9 0 -16 5 -16 10 0 6 4 10 9 10 6 0 13 -4 16 -10z m-45 -4 c0 -2 2 -10 5
-18 4 -9 -5 -14 -25 -15 -33 -2 -36 1 -17 22 11 13 37 21 37 11z m-1195 -46
c-3 -5 -10 -10 -16 -10 -5 0 -9 5 -9 10 0 6 7 10 16 10 8 0 12 -4 9 -10z m50
-30 c4 -6 -5 -10 -19 -10 -14 0 -26 5 -26 10 0 6 9 10 19 10 11 0 23 -4 26
-10z m451 -77 c-6 -6 -36 9 -36 18 0 5 9 4 20 -3 10 -7 18 -14 16 -15z m468 1
c3 -8 2 -12 -4 -9 -6 3 -10 10 -10 16 0 14 7 11 14 -7z m-839 -4 c3 -5 1 -10
-4 -10 -6 0 -11 5 -11 10 0 6 2 10 4 10 3 0 8 -4 11 -10z m1990 -40 c3 -5 1
-10 -4 -10 -6 0 -11 5 -11 10 0 6 2 10 4 10 3 0 8 -4 11 -10z m705 -21 c0 -18
-18 -9 -23 12 -4 16 -3 18 9 8 8 -6 14 -15 14 -20z m34 -29 c18 -7 26 -17 26
-35 l0 -25 -32 20 c-17 10 -33 26 -34 35 -3 18 5 19 40 5z m76 -62 c0 -12 -14
-10 -28 4 -19 19 -14 29 8 16 11 -7 20 -16 20 -20z m-3642 -1953 c47 -113 74
-187 69 -191 -7 -7 -45 61 -56 101 -13 49 -30 88 -73 172 -21 40 -38 76 -38
80 1 15 77 -112 98 -162z m3872 -15 c0 -5 -5 -10 -11 -10 -5 0 -7 5 -4 10 3 6
8 10 11 10 2 0 4 -4 4 -10z m-10 -49 c0 -6 -4 -13 -10 -16 -5 -3 -10 1 -10 9
0 9 5 16 10 16 6 0 10 -4 10 -9z m-1037 -125 c59 -90 63 -99 111 -221 66 -167
83 -191 141 -199 l45 -7 -5 -67 c-8 -93 -14 -114 -28 -109 -7 2 -12 9 -12 16
0 6 -4 15 -10 19 -30 21 -35 39 -20 68 21 41 19 57 -12 71 -31 15 -53 2 -53
-29 0 -11 -5 -16 -11 -13 -6 4 -9 26 -8 49 3 44 -5 73 -58 211 -48 125 -71
173 -110 228 -22 29 -29 45 -19 41 9 -4 31 -29 49 -58z m-2877 -166 c-5 -144
-19 -203 -83 -350 -40 -91 -125 -240 -138 -240 -3 0 10 24 27 53 17 28 47 88
68 132 88 189 116 324 108 514 -5 113 -5 115 9 66 10 -36 13 -85 9 -175z m582
-27 c-10 -67 -24 -107 -44 -124 -11 -9 -14 -8 -14 5 0 9 -2 16 -4 16 -2 0 -11
3 -20 6 -10 4 -20 -5 -31 -25 -27 -53 -65 -37 -65 27 0 61 10 73 93 113 45 21
84 39 87 39 4 0 3 -26 -2 -57z m-361 -3 c13 -37 8 -131 -8 -162 -13 -24 -35
-22 -53 4 -19 26 -22 148 -5 179 17 32 52 20 66 -21z m470 -92 c-3 -7 -5 -2
-5 12 0 14 2 19 5 13 2 -7 2 -19 0 -25z m2217 -153 c0 -114 -4 -156 -22 -225
-24 -91 -58 -182 -79 -215 -7 -11 -13 -27 -13 -36 0 -9 -6 -22 -14 -28 -9 -8
-3 17 15 66 77 205 106 377 94 548 -4 67 -3 76 7 55 7 -16 12 -76 12 -165z
m-2231 3 c-9 -203 17 -351 96 -567 21 -58 54 -133 73 -166 19 -33 37 -67 40
-75 3 -8 33 -52 67 -98 33 -45 61 -85 61 -88 0 -4 8 -13 18 -20 13 -11 14 -13
1 -9 -22 8 -147 176 -200 270 -48 84 -114 252 -135 345 -7 30 -18 75 -25 100
-8 27 -13 115 -13 225 -1 161 4 215 18 215 2 0 2 -60 -1 -132z m-333 -143 c-6
-15 -13 -26 -16 -23 -2 3 0 18 6 33 6 15 13 26 16 23 2 -3 0 -18 -6 -33z m-76
-38 c-7 -18 -24 -23 -24 -8 0 22 13 42 22 33 5 -5 6 -16 2 -25z m2786 -23 c0
-2 -7 -4 -15 -4 -8 0 -15 4 -15 10 0 5 7 7 15 4 8 -4 15 -8 15 -10z m-2800
-24 c0 -5 -4 -10 -9 -10 -6 0 -13 5 -16 10 -3 6 1 10 9 10 9 0 16 -4 16 -10z
m38 -14 c-3 -13 0 -23 6 -23 45 1 76 -5 76 -13 0 -5 -7 -7 -15 -4 -8 4 -22 4
-30 0 -13 -5 -12 -9 5 -26 11 -11 18 -26 14 -31 -4 -8 -9 -7 -14 1 -11 18 -19
-1 -13 -33 5 -28 33 -39 33 -13 0 8 4 17 9 20 5 3 9 -4 8 -17 0 -12 3 -31 8
-42 7 -19 7 -19 -6 -2 -13 17 -16 15 -30 -17 -14 -31 -14 -36 -1 -41 12 -4 13
-8 3 -18 -9 -9 -14 -9 -21 3 -5 8 -12 11 -16 8 -8 -8 10 -27 49 -53 21 -13 25
-21 16 -29 -8 -8 -13 -8 -16 2 -6 14 -33 16 -33 2 0 -5 7 -10 15 -10 8 0 15
-4 15 -10 0 -5 7 -10 15 -10 8 0 15 -5 15 -11 0 -6 -7 -9 -15 -5 -12 4 -15 -4
-15 -40 0 -32 -4 -44 -12 -41 -9 2 -12 20 -11 51 2 28 -1 45 -7 41 -6 -3 -10
-20 -10 -37 0 -31 0 -31 -21 -12 -22 19 -22 19 -11 -2 12 -23 7 -34 -15 -34
-10 0 -13 10 -11 33 3 28 0 32 -24 35 -16 2 -28 -2 -28 -8 0 -7 8 -9 20 -5 12
4 20 2 20 -5 0 -6 -16 -10 -40 -8 -35 2 -41 6 -50 32 -9 30 1 78 23 113 5 8 0
17 -13 25 -25 16 -26 37 -2 54 16 12 16 13 0 19 -10 4 -18 12 -18 18 0 6 3 8
6 5 8 -9 46 31 39 42 -7 12 26 29 45 23 13 -4 13 -3 0 6 -8 5 -18 7 -22 5 -4
-3 -8 0 -8 5 0 6 5 11 10 11 6 0 10 7 10 15 0 8 7 15 15 15 9 0 15 -6 14 -12
-3 -17 22 -68 32 -68 5 0 2 18 -6 39 -7 22 -10 42 -7 46 4 4 8 11 8 16 2 16 4
19 10 19 4 0 4 -11 2 -24z m76 -1 c-4 -8 -11 -12 -16 -9 -6 4 -5 10 3 15 19
12 19 11 13 -6z m-218 -271 c-5 -19 -10 -24 -17 -17 -8 8 -7 18 1 33 15 28 24
19 16 -16z m92 -167 c2 -10 -3 -17 -12 -17 -9 0 -15 3 -15 8 3 19 -2 26 -11
12 -5 -8 -12 -11 -17 -7 -10 10 17 28 37 24 8 -1 16 -10 18 -20z m32 -33 c0
-8 -5 -12 -10 -9 -6 4 -8 11 -5 16 9 14 15 11 15 -7z m40 -4 c0 -5 -2 -10 -4
-10 -3 0 -8 5 -11 10 -3 6 -1 10 4 10 6 0 11 -4 11 -10z m2487 -446 c-7 -7
-37 7 -37 17 0 6 9 5 21 -1 11 -7 19 -14 16 -16z"/>
<path d="M7095 8880 c3 -5 10 -10 16 -10 5 0 9 5 9 10 0 6 -7 10 -16 10 -8 0
-12 -4 -9 -10z"/>
<path d="M7200 8830 c0 -5 5 -10 11 -10 5 0 7 5 4 10 -3 6 -8 10 -11 10 -2 0
-4 -4 -4 -10z"/>
<path d="M6316 8665 c4 -8 12 -15 20 -15 20 0 17 7 -6 20 -16 9 -18 8 -14 -5z"/>
<path d="M6380 8491 c0 -12 0 -24 -1 -28 0 -4 4 -9 9 -11 12 -4 13 46 1 54 -5
3 -9 -4 -9 -15z"/>
<path d="M7430 8484 c0 -8 5 -12 10 -9 6 4 8 11 5 16 -9 14 -15 11 -15 -7z"/>
<path d="M7440 8401 c0 -6 5 -13 10 -16 6 -3 10 1 10 9 0 9 -4 16 -10 16 -5 0
-10 -4 -10 -9z"/>
<path d="M6584 8359 c-10 -17 13 -36 27 -22 12 12 4 33 -11 33 -5 0 -12 -5
-16 -11z"/>
<path d="M6965 8320 c3 -5 12 -7 20 -3 21 7 19 13 -6 13 -11 0 -18 -4 -14 -10z"/>
<path d="M6838 8308 c9 -9 15 -9 24 0 9 9 7 12 -12 12 -19 0 -21 -3 -12 -12z"/>
<path d="M5846 5171 c-3 -5 1 -11 9 -14 9 -4 12 -1 8 9 -6 16 -10 17 -17 5z"/>
<path d="M5818 5123 c7 -3 16 -2 19 1 4 3 -2 6 -13 5 -11 0 -14 -3 -6 -6z"/>
<path d="M5905 5120 c-13 -6 -15 -9 -5 -9 8 0 22 4 30 9 18 12 2 12 -25 0z"/>
<path d="M5847 5096 c-4 -10 -1 -13 8 -9 8 3 12 9 9 14 -7 12 -11 11 -17 -5z"/>
<path d="M5850 5050 c0 -5 5 -10 10 -10 6 0 10 5 10 10 0 6 -4 10 -10 10 -5 0
-10 -4 -10 -10z"/>
<path d="M5880 5030 c0 -5 5 -10 10 -10 6 0 10 5 10 10 0 6 -4 10 -10 10 -5 0
-10 -4 -10 -10z"/>
<path d="M5850 5019 c0 -5 5 -7 10 -4 6 3 10 8 10 11 0 2 -4 4 -10 4 -5 0 -10
-5 -10 -11z"/>
<path d="M5800 4900 c0 -5 5 -10 10 -10 6 0 10 5 10 10 0 6 -4 10 -10 10 -5 0
-10 -4 -10 -10z"/>
<path d="M12490 9518 l0 -6482 -30 29 c-16 16 -32 27 -34 24 -2 -2 10 -33 27
-69 l32 -65 2 -569 c3 -611 4 -596 -43 -494 -26 57 -95 143 -152 190 -11 9
-47 20 -79 24 -77 9 -103 20 -103 42 0 22 19 42 40 42 8 0 21 10 28 21 12 18
21 21 58 16 24 -2 44 -1 44 4 0 19 -49 39 -99 41 -49 2 -91 24 -91 47 0 20 70
61 102 61 28 -1 40 -9 73 -51 22 -28 43 -56 47 -62 4 -6 10 -9 13 -5 9 9 -39
92 -88 151 -68 82 -99 108 -157 134 -67 30 -66 29 -50 48 10 12 10 18 0 30
-16 20 -84 20 -100 -1 -19 -22 -63 -14 -75 14 -7 15 -18 22 -37 22 -32 0 -38
23 -15 55 15 19 37 13 37 -11 0 -8 4 -14 9 -14 19 0 22 20 6 49 -25 49 -19 91
17 128 24 24 28 33 15 33 -9 0 -30 -18 -48 -40 -31 -38 -49 -44 -49 -16 0 8
21 41 48 74 81 105 107 145 145 223 20 42 37 79 37 83 0 3 -14 -3 -32 -14 -22
-13 -37 -16 -49 -10 -13 8 -24 1 -51 -29 -18 -22 -41 -51 -51 -65 -24 -35 -55
-34 -62 2 -4 15 -10 34 -16 42 -32 51 -33 60 -15 127 9 37 40 113 67 169 56
118 58 128 27 118 -57 -19 -71 -12 -94 46 -24 59 -39 72 -48 42 -4 -10 -20
-39 -36 -65 -45 -71 -62 -64 -91 36 -13 45 -28 81 -33 80 -10 -2 -66 -128 -91
-205 -17 -52 -40 -88 -56 -88 -19 0 -43 55 -68 157 -15 60 -36 124 -46 143
l-19 35 -7 -30 c-4 -16 -7 -25 -8 -19 0 6 -12 16 -25 22 -26 11 -43 62 -30 84
14 21 13 36 -2 48 -10 9 -14 6 -19 -17 -18 -80 -35 -89 -91 -47 -19 15 -37 24
-40 22 -6 -7 53 -126 74 -151 12 -13 17 -15 23 -5 6 10 11 10 20 1 6 -6 8 -17
4 -23 -9 -14 -9 -195 -1 -208 5 -8 -3 -52 -10 -52 -3 0 -48 24 -163 89 -41 23
-75 40 -77 38 -10 -10 38 -125 67 -160 45 -53 118 -257 93 -257 -3 0 -27 19
-53 41 -27 23 -63 48 -81 55 -29 13 -32 13 -25 -4 39 -99 85 -239 85 -263 0
-24 -4 -29 -24 -29 -13 0 -39 13 -57 30 -19 16 -38 30 -43 30 -13 0 2 -52 24
-82 23 -32 24 -38 7 -62 -11 -14 -17 -15 -42 -6 -17 6 -40 21 -52 32 -13 12
-29 18 -39 14 -13 -5 -15 -14 -9 -49 12 -74 23 -162 19 -166 -2 -2 -9 1 -16 6
-7 6 -34 13 -60 16 -25 4 -67 18 -91 32 -50 27 -57 29 -57 17 0 -9 80 -153 97
-174 6 -7 13 -41 17 -75 l7 -62 -58 1 c-74 2 -123 -9 -123 -28 0 -8 11 -19 24
-24 13 -5 27 -14 31 -21 4 -6 28 -20 54 -31 25 -11 61 -34 79 -51 51 -49 38
-79 -15 -37 -14 11 -31 20 -38 20 -6 0 -20 10 -31 21 -10 12 -30 26 -44 31
-20 7 -27 5 -40 -13 -14 -18 -20 -20 -38 -10 -12 6 -21 15 -21 19 5 30 -3 42
-28 42 -44 0 -68 -10 -82 -32 -11 -17 -9 -23 9 -43 12 -13 32 -26 45 -29 12
-3 25 -13 29 -21 4 -12 -4 -15 -44 -16 -91 -3 -94 -7 -41 -60 59 -59 55 -75
-19 -82 -34 -3 -77 -1 -96 5 -43 11 -64 -2 -64 -42 0 -22 6 -29 33 -36 25 -8
33 -16 35 -37 3 -22 -1 -27 -20 -27 -34 0 -111 -25 -115 -37 -2 -6 15 -13 38
-17 22 -4 54 -13 70 -21 15 -8 37 -15 49 -15 24 0 66 -25 98 -59 12 -13 22
-24 22 -25 0 -1 -13 -39 -29 -85 -22 -64 -26 -92 -21 -123 6 -33 4 -43 -13
-58 -15 -15 -18 -27 -14 -54 5 -31 2 -38 -24 -56 -26 -19 -43 -50 -19 -35 6 3
10 1 10 -4 0 -6 10 -11 21 -11 17 0 20 -4 15 -22 -3 -13 -6 -26 -6 -30 0 -5
-6 -8 -12 -8 -7 0 -43 -25 -81 -55 -37 -30 -77 -55 -90 -55 -14 0 -18 -3 -10
-8 10 -6 10 -20 -2 -66 -8 -31 -15 -77 -15 -101 0 -24 -5 -56 -11 -72 -6 -15
-10 -46 -10 -68 1 -22 -4 -67 -10 -100 -10 -52 -16 -62 -43 -76 -29 -15 -31
-19 -30 -70 1 -30 4 -79 8 -109 4 -30 7 -93 6 -140 -1 -47 -3 -119 -4 -160
l-1 -75 55 -7 c95 -12 201 -27 303 -43 79 -12 160 -15 415 -11 174 2 354 8
400 13 61 6 89 5 105 -4 39 -22 76 -16 88 14 14 37 38 52 83 53 21 0 86 19
143 42 l106 42 17 -22 c10 -12 29 -22 43 -22 17 0 35 -12 55 -38 45 -56 136
-82 288 -82 109 0 115 1 109 19 -8 26 26 57 72 66 43 8 48 4 47 -46 l-1 -39
1843 0 1844 0 0 8000 0 8000 -1755 0 -1755 0 0 -6482z m-1554 -7116 c32 -72
30 -84 -7 -42 -35 41 -62 97 -53 111 10 17 34 -11 60 -69z m1155 48 c23 -13
25 -40 3 -40 -8 0 -24 5 -35 11 -16 8 -26 5 -55 -20 -21 -19 -46 -31 -62 -31
-31 0 -75 35 -69 53 2 7 35 15 76 19 40 3 75 9 78 12 10 9 42 7 64 -4z m-766
-50 c7 -11 -42 -37 -51 -27 -4 3 -4 13 -1 22 7 17 42 21 52 5z m971 -389 c48
-22 94 -73 152 -170 36 -61 42 -79 42 -126 l0 -55 -52 22 c-29 11 -77 25 -107
30 -82 13 -90 21 -47 47 20 13 36 29 36 38 0 12 -21 14 -142 12 -156 -3 -167
1 -129 52 11 15 21 35 21 43 0 52 48 86 123 86 16 0 26 4 22 10 -9 14 3 30 23
30 9 0 35 -9 58 -19z m-625 -221 c32 -18 23 -40 -16 -40 -36 0 -46 15 -23 38
15 15 15 15 39 2z m258 -70 c-17 -21 -50 -52 -73 -67 -22 -15 -43 -31 -46 -34
-11 -14 -90 -49 -110 -49 -26 0 -26 29 1 64 15 19 30 26 53 26 18 0 44 8 57
19 27 21 130 79 142 80 4 1 -6 -17 -24 -39z m141 -55 c0 -20 -38 -57 -50 -50
-17 10 -11 33 12 49 28 20 38 20 38 1z m378 -88 c6 -5 12 -28 12 -52 l0 -43
-112 4 c-92 4 -115 8 -126 22 -11 14 -10 19 5 29 24 18 81 33 125 33 20 0 40
4 43 10 7 11 33 9 53 -3z m-533 -177 c8 -13 -13 -40 -31 -40 -17 0 -18 37 -1
43 19 8 25 8 32 -3z m391 -136 c38 -18 40 -37 5 -42 -15 -2 -21 -9 -17 -18 4
-10 -3 -14 -25 -14 -22 0 -32 -6 -36 -19 -4 -15 -11 -18 -42 -14 -21 3 -52 -1
-72 -10 -25 -10 -41 -12 -53 -5 -10 6 -33 7 -52 3 -30 -5 -38 -2 -64 27 -39
42 -40 75 -2 85 35 9 100 10 182 1 50 -5 70 -3 84 8 26 18 50 18 92 -2z m-445
-87 c45 -44 60 -67 44 -67 -7 0 -16 4 -19 9 -3 4 -26 11 -51 14 -59 6 -63 12
-35 42 29 31 31 31 61 2z m-892 -59 c5 -15 6 -30 2 -33 -12 -7 -37 26 -45 58
-6 26 -5 27 14 15 11 -7 24 -25 29 -40z m648 -62 c-2 -6 -18 -11 -36 -12 -20
0 -37 -7 -43 -17 -11 -20 -38 -23 -38 -4 0 13 16 23 70 44 29 12 53 6 47 -11z
m-127 -46 c0 -5 -10 -10 -22 -9 -22 0 -22 1 -3 9 11 5 21 9 23 9 1 1 2 -3 2
-9z m480 -65 c10 -12 9 -16 -6 -22 -11 -3 -40 -26 -66 -50 -49 -45 -66 -50
-99 -33 -26 14 -24 38 4 51 13 6 34 24 48 40 19 23 32 29 65 29 25 0 47 -6 54
-15z m-831 -54 c6 -19 9 -36 7 -39 -7 -6 -36 55 -36 75 0 24 15 5 29 -36z
m955 -222 c-3 -5 0 -9 5 -9 6 0 11 -4 11 -10 0 -5 -6 -7 -14 -4 -15 6 -31 -37
-17 -46 18 -12 18 -48 0 -61 -22 -15 -26 -34 -6 -26 10 4 13 -2 9 -19 -2 -13
-7 -24 -11 -24 -4 0 -7 -17 -8 -37 -1 -21 -4 -65 -7 -98 -17 -174 -17 -173 1
-184 15 -9 13 -11 -12 -11 -28 -1 -29 -2 -7 -10 12 -5 22 -17 22 -25 0 -12 -6
-15 -22 -9 -13 4 -25 10 -28 14 -3 4 -41 12 -85 19 -79 12 -161 36 -180 53 -5
4 -19 8 -31 8 -13 0 -25 4 -28 9 -4 5 -29 12 -56 16 -27 4 -53 12 -57 18 -16
27 -10 63 18 105 19 28 27 51 24 63 -4 10 -32 30 -66 45 -32 15 -59 29 -59 33
0 3 -16 23 -35 44 -29 31 -41 38 -67 35 -17 -2 -33 2 -35 8 -6 17 51 54 90 61
28 4 39 0 67 -25 30 -28 32 -32 21 -62 -20 -58 10 -70 36 -15 16 34 44 52 62
40 6 -3 26 1 45 9 19 8 37 12 40 8 3 -3 16 -1 29 5 12 6 50 17 84 26 l62 15
26 -34 c35 -46 47 -43 44 11 -3 42 -1 47 30 63 33 18 116 19 105 1z m-991
-262 c11 -37 17 -70 14 -73 -13 -13 -27 9 -27 42 0 19 -7 51 -15 70 -10 23
-11 34 -3 32 6 -2 20 -34 31 -71z m1387 -247 c0 -5 -9 -10 -20 -10 -11 0 -20
-4 -20 -10 0 -5 6 -10 13 -10 7 0 13 -9 14 -19 2 -22 -15 -19 -56 11 -35 25
-21 48 29 48 22 0 40 -4 40 -10z m-140 -131 c0 -6 -4 -7 -10 -4 -5 3 -10 11
-10 16 0 6 5 7 10 4 6 -3 10 -11 10 -16z"/>
<path d="M9249 15661 c-19 -4 -63 -24 -96 -44 -33 -20 -66 -37 -73 -37 -7 0
-43 -17 -79 -38 -36 -21 -87 -46 -113 -55 -25 -10 -66 -35 -90 -56 -24 -21
-58 -46 -75 -55 -18 -9 -33 -21 -33 -27 0 -5 -27 -39 -61 -75 -35 -38 -74 -93
-92 -132 -28 -58 -32 -80 -35 -166 -3 -71 1 -114 12 -150 8 -28 18 -72 21 -98
4 -27 10 -48 15 -48 5 0 6 16 3 35 -6 38 27 134 54 157 13 10 14 8 11 -12 -2
-15 2 -24 9 -23 8 2 10 -13 8 -48 -2 -28 0 -61 5 -73 6 -17 4 -25 -10 -34 -11
-6 -22 -27 -26 -47 -3 -19 -10 -35 -15 -35 -10 0 -12 -31 -3 -53 4 -12 14 -11
56 10 43 21 54 22 84 13 36 -12 110 -92 100 -109 -4 -5 -2 -12 4 -16 12 -7 2
-83 -12 -102 -6 -7 -8 -19 -5 -28 4 -8 2 -17 -2 -20 -5 -2 -12 -21 -15 -40 -4
-19 -11 -35 -16 -35 -14 0 -12 21 4 52 40 77 31 190 -18 243 -50 52 -115 45
-175 -19 -22 -23 -29 -25 -82 -19 -57 6 -59 5 -93 -29 -20 -20 -38 -33 -41
-30 -3 4 -2 -5 3 -18 5 -14 6 -34 2 -45 -13 -34 7 -122 37 -167 57 -84 126
-119 206 -104 34 6 85 47 124 101 12 17 22 25 22 19 1 -19 -65 -99 -93 -112
-56 -26 -72 -32 -106 -35 -28 -3 -25 -4 14 -5 27 -1 66 3 88 10 32 9 41 9 48
-2 5 -8 5 -21 -1 -31 -6 -11 -4 -29 6 -52 8 -18 19 -71 24 -115 6 -45 18 -93
26 -106 17 -26 51 -40 61 -25 10 17 34 9 43 -14 5 -13 27 -35 50 -50 65 -43
69 -127 8 -178 l-32 -26 36 -36 c22 -22 56 -41 92 -53 31 -10 66 -26 77 -36
10 -10 27 -18 36 -18 14 0 16 -8 12 -44 -3 -25 -13 -52 -22 -61 -9 -9 -16 -20
-16 -25 0 -48 -26 -172 -41 -196 -19 -31 -105 -80 -219 -124 -72 -28 -87 -43
-122 -120 -32 -70 -40 -95 -40 -122 1 -10 -3 -18 -7 -18 -5 0 -11 -9 -14 -20
-3 -11 -12 -20 -21 -20 -9 0 -16 -4 -16 -10 0 -13 2 -13 79 6 59 15 65 15 76
0 13 -17 35 -22 35 -7 0 4 28 11 63 15 34 3 76 9 92 12 17 2 73 4 125 4 86 0
476 0 575 0 22 0 63 -2 90 -4 28 -2 84 -5 126 -5 59 -1 86 -6 120 -24 24 -13
70 -26 102 -30 32 -3 71 -14 87 -24 l30 -19 -30 -17 c-16 -10 -33 -18 -37 -18
-28 -2 -44 -22 -38 -46 l6 -25 -29 20 c-21 15 -38 19 -68 16 -31 -4 -51 1 -96
26 -32 17 -60 36 -63 41 -4 5 -17 9 -29 9 -13 0 -37 7 -52 15 -16 8 -34 15
-41 15 -12 0 -43 -54 -43 -77 0 -7 -6 -12 -12 -11 -7 2 -14 -7 -16 -20 -3 -17
10 -35 52 -74 31 -28 54 -53 51 -56 -2 -3 4 -17 14 -31 29 -42 47 -221 22
-221 -4 0 -15 18 -24 39 -20 45 -112 187 -127 196 -6 4 -25 37 -42 73 -35 75
-73 122 -100 122 -35 0 -13 -48 56 -125 20 -22 36 -43 36 -47 0 -4 6 -13 13
-20 6 -7 25 -40 41 -73 53 -111 55 -145 7 -145 -15 0 -31 -3 -34 -7 -13 -12
76 -43 125 -43 27 0 47 -4 44 -9 -3 -5 1 -22 9 -37 38 -74 -3 -104 -89 -65
-134 60 -156 72 -156 81 0 5 -8 10 -19 10 -33 0 -46 28 -47 109 -1 86 -18 150
-46 169 -10 7 -18 22 -18 33 0 10 -4 19 -10 19 -12 0 -13 -10 -1 -30 6 -8 7
-19 3 -24 -3 -6 -7 -28 -8 -51 -1 -22 -7 -60 -13 -84 -8 -31 -9 -47 -1 -55 16
-16 12 -41 -10 -61 -10 -9 -19 -20 -18 -24 5 -40 -10 -39 -62 4 -23 19 -48 35
-55 35 -8 0 -17 10 -21 22 -7 24 -42 57 -61 58 -7 0 -24 11 -39 25 -15 14 -38
28 -50 31 -12 3 -29 18 -36 34 l-14 28 -68 -33 c-37 -19 -74 -39 -82 -46 -8
-6 -42 -15 -77 -19 -54 -6 -113 -20 -269 -61 -31 -8 -38 -14 -38 -35 0 -34
-34 -127 -59 -163 -12 -16 -21 -40 -21 -54 0 -33 33 -41 161 -39 112 1 112 1
102 -94 -5 -44 -10 -57 -27 -64 -35 -13 -55 -44 -58 -89 -3 -48 0 -51 72 -72
25 -8 52 -22 61 -33 15 -18 17 -17 65 19 58 44 64 53 88 125 11 30 22 60 26
65 4 6 18 44 30 85 12 41 27 80 31 86 12 15 93 11 113 -5 9 -8 16 -22 16 -32
0 -26 27 -14 34 16 6 22 9 22 73 18 77 -6 89 -13 98 -54 8 -34 51 -89 70 -89
15 0 25 -22 25 -52 0 -12 -13 -42 -29 -67 -16 -25 -44 -82 -61 -126 -23 -59
-44 -92 -80 -128 -27 -27 -52 -57 -55 -66 -5 -17 -64 -61 -82 -61 -6 0 -16
-14 -23 -31 -7 -17 -25 -38 -39 -47 -14 -9 -34 -22 -44 -31 -17 -14 -16 -16
10 -39 26 -22 26 -23 6 -19 -13 3 -23 3 -23 0 0 -12 41 -36 170 -100 126 -63
160 -83 160 -97 0 -11 -34 -6 -49 8 -9 7 -29 16 -46 20 l-30 6 40 -36 c22 -20
57 -52 78 -71 22 -21 37 -44 37 -58 0 -17 8 -26 30 -34 40 -13 127 -97 145
-138 8 -18 19 -33 25 -33 8 0 9 -25 4 -84 -4 -58 -3 -85 5 -90 6 -4 11 -18 11
-32 0 -14 7 -27 15 -30 8 -4 15 -12 15 -19 0 -6 8 -19 18 -29 11 -9 24 -41 31
-71 11 -48 18 -58 62 -89 27 -20 54 -36 60 -36 5 0 8 -4 5 -8 -2 -4 7 -7 21
-6 14 0 42 -7 62 -17 137 -66 155 -69 261 -43 36 9 92 15 125 15 36 -1 67 3
78 11 17 13 46 113 72 253 25 138 106 486 121 522 13 30 18 34 29 22 16 -17
116 -358 140 -479 9 -47 20 -88 24 -92 11 -12 111 52 163 104 l47 47 -5 78
c-5 93 -43 185 -81 202 -19 9 -22 15 -14 24 7 9 7 17 1 23 -13 13 -20 162 -9
199 4 17 11 47 14 67 3 21 12 43 19 50 7 7 11 19 8 26 -2 7 11 27 29 43 44 40
96 40 141 1 32 -28 62 -40 122 -48 15 -2 36 -6 46 -9 25 -8 33 9 26 50 -8 39
-50 95 -72 95 -25 0 -63 52 -64 86 0 21 10 39 33 62 18 18 38 32 45 32 7 0 12
16 12 44 0 54 -30 100 -84 129 -22 12 -53 36 -68 52 -27 28 -28 35 -27 115 1
47 -1 164 -3 260 -2 96 -1 186 3 200 4 14 13 45 19 70 6 25 17 69 25 98 7 29
23 71 34 93 36 68 26 299 -12 287 -6 -3 -26 -33 -43 -69 -18 -35 -38 -71 -46
-79 -8 -8 -21 -30 -29 -47 -17 -40 -25 -41 -34 -5 -4 15 -9 36 -12 47 -8 30
-9 108 -1 126 4 8 1 33 -7 55 -10 30 -19 40 -39 42 -14 2 -26 -1 -26 -6 0 -6
-14 -19 -32 -30 l-32 -20 -27 29 c-15 16 -33 29 -41 29 -7 0 -20 9 -28 20 -8
11 -23 20 -33 20 -11 0 -17 5 -14 13 2 6 11 11 21 9 9 -2 16 2 16 8 0 10 -19
14 -53 10 -10 -1 -27 6 -37 15 -30 27 -151 40 -241 26 -46 -7 -109 -9 -152 -5
-52 4 -81 3 -97 -6 -20 -11 -67 -15 -260 -22 -8 0 -19 -4 -25 -8 -22 -15 -136
-11 -165 7 -31 18 -31 33 -1 33 10 0 24 6 30 14 7 8 43 15 98 19 50 3 89 10
91 16 2 6 14 11 27 11 13 0 26 4 30 10 3 5 12 7 20 3 8 -3 15 0 15 6 0 6 -6
11 -14 11 -19 0 -28 40 -10 47 8 3 14 14 14 24 0 11 7 19 16 19 8 0 12 5 9 10
-12 20 37 10 68 -14 40 -30 77 -42 77 -25 0 17 -41 82 -62 97 -11 8 -26 22
-36 32 -27 29 -70 36 -87 14 -14 -18 -15 -18 -33 5 -18 22 -25 23 -133 23
-137 -1 -163 7 -182 56 -18 44 -15 92 11 192 29 109 35 203 16 243 -14 30 -18
32 -58 29 l-43 -4 -1 36 c-1 20 -6 45 -12 56 -6 11 -8 25 -5 30 3 5 0 12 -6
15 -5 4 -8 13 -5 21 3 8 1 14 -4 14 -6 0 -10 6 -10 13 0 7 -10 23 -22 34 -41
37 -58 63 -58 89 0 14 -9 71 -21 127 -25 125 -26 170 -4 203 9 14 14 31 12 39
-3 7 -1 17 4 22 6 6 6 19 1 33 -11 28 7 85 33 104 16 12 17 16 4 44 -8 18 -20
32 -26 32 -9 0 -13 18 -13 59 0 32 -5 72 -11 90 -6 18 -9 34 -7 36 2 3 21 -12
43 -33 21 -20 43 -37 49 -38 17 -1 67 -22 107 -44 20 -11 43 -20 51 -20 7 0
31 -9 52 -21 21 -11 41 -18 44 -15 3 3 0 6 -7 6 -8 0 -11 7 -7 15 3 9 0 15 -8
15 -8 0 -16 3 -18 8 -1 4 -50 29 -107 55 -80 36 -106 45 -113 35 -6 -10 -8
-10 -8 0 0 6 -6 12 -13 12 -7 0 -30 18 -50 39 -31 32 -45 40 -84 43 -27 3 -54
0 -61 -5 -7 -5 -15 -7 -19 -3 -3 3 -1 6 6 6 8 0 11 7 7 15 -3 8 2 21 10 30 9
8 12 15 7 15 -4 0 -3 4 3 8 6 4 19 23 29 42 10 19 20 30 22 23 2 -7 11 -9 19
-6 8 3 14 0 14 -7 0 -10 3 -10 15 0 8 7 15 10 15 6 0 -9 73 23 81 35 4 6 15 7
30 1 13 -5 58 -20 99 -32 78 -24 109 -49 110 -87 0 -41 11 -53 47 -53 40 0 67
12 106 48 24 23 29 24 42 11 14 -13 14 -25 3 -88 -10 -60 -18 -77 -41 -97 -16
-14 -28 -26 -26 -27 2 -2 18 -11 34 -21 17 -10 42 -30 58 -44 l27 -26 0 28 c0
38 17 66 40 66 11 0 20 -5 20 -10 0 -6 10 -2 21 9 17 16 20 26 14 53 -11 52
-6 122 9 133 8 6 22 15 30 20 15 9 15 14 -4 50 -11 21 -20 43 -20 48 0 13
-110 147 -121 147 -6 0 -19 -10 -28 -22 l-18 -22 -16 25 c-11 16 -16 43 -14
74 2 64 -23 105 -63 105 -30 0 -73 42 -85 82 -4 13 -13 37 -20 53 -7 17 -16
51 -20 77 -7 43 -34 88 -54 88 -5 0 -11 8 -13 18 -3 11 -23 23 -49 31 -24 8
-62 21 -84 31 -46 20 -144 30 -196 21z m187 -241 c8 0 14 -9 14 -19 0 -33 -17
-33 -29 1 -11 30 -14 55 -4 31 2 -7 11 -13 19 -13z m-100 -634 c10 -8 16 -18
12 -22 -4 -4 -14 -1 -22 5 -40 33 -103 16 -158 -44 -29 -32 -36 -35 -89 -35
-53 0 -61 -3 -93 -34 -36 -36 -62 -97 -52 -121 3 -8 1 -15 -4 -15 -6 0 -10 -7
-10 -16 0 -8 -4 -12 -10 -9 -13 8 -13 45 1 45 5 0 7 5 4 10 -4 6 -2 16 3 23 5
7 12 23 15 37 3 14 24 43 46 64 35 34 46 39 106 45 37 4 70 11 73 17 4 5 22
22 40 37 38 31 104 37 138 13z m44 -266 c0 -11 -4 -20 -10 -20 -5 0 -10 9 -10
20 0 11 5 20 10 20 6 0 10 -9 10 -20z m-510 -56 c0 -8 -4 -14 -9 -14 -11 0
-22 26 -14 34 9 9 23 -3 23 -20z m482 -14 c-10 -27 -42 -70 -42 -56 0 11 45
94 49 90 2 -1 -2 -17 -7 -34z m-416 8 c13 -42 75 -127 107 -147 74 -45 146
-35 217 29 54 49 61 51 23 7 -67 -80 -164 -102 -238 -55 -63 40 -135 133 -135
174 0 22 18 16 26 -8z m40 -214 c65 -47 68 -51 58 -78 -5 -13 -12 -13 -56 5
-28 11 -60 26 -71 34 -10 7 -26 11 -33 8 -8 -3 -14 0 -14 6 0 20 -17 12 -25
-11 -6 -21 -8 -21 -12 -4 -3 10 -1 21 4 25 6 3 14 20 18 36 10 37 10 36 19 57
7 16 10 15 28 -7 11 -14 48 -46 84 -71z m-386 -120 c0 -2 -7 -4 -15 -4 -8 0
-15 4 -15 10 0 5 7 7 15 4 8 -4 15 -8 15 -10z m40 -9 c0 -12 -43 -25 -63 -18
-22 7 -19 9 56 22 4 0 7 -1 7 -4z m1190 -1186 c0 -11 -27 -12 -34 0 -3 4 -3
11 0 14 8 8 34 -3 34 -14z m840 -219 c0 -5 -4 -10 -10 -10 -5 0 -10 5 -10 10
0 6 5 10 10 10 6 0 10 -4 10 -10z m-520 -354 c0 -8 -4 -17 -9 -21 -12 -7 -24
12 -16 25 9 15 25 12 25 -4z m-1093 -316 c1 -14 0 -19 -3 -12 -3 6 -12 12 -20
12 -8 0 -14 7 -14 16 0 26 35 12 37 -16z"/>
<path d="M9402 14668 c-7 -7 -12 -23 -12 -37 0 -30 15 -17 24 22 7 30 5 32
-12 15z"/>
<path d="M10092 14657 c10 -8 15 -17 11 -20 -3 -4 -1 -7 6 -7 20 0 7 35 -14
38 -19 3 -19 2 -3 -11z"/>
<path d="M9960 14551 c-11 -21 -13 -64 -4 -97 4 -16 12 -19 34 -16 57 8 67 53
23 100 -36 38 -39 38 -53 13z"/>
<path d="M10041 14239 c-18 -21 -41 -39 -51 -39 -28 0 -39 -22 -51 -104 -14
-103 -6 -475 11 -486 8 -5 12 -54 14 -155 2 -143 3 -148 24 -156 27 -10 52
-65 52 -113 0 -39 14 -54 34 -37 13 11 33 9 144 -19 28 -7 32 -6 32 13 0 12
-18 40 -41 63 -39 40 -50 70 -50 136 0 22 -6 29 -27 33 -74 15 -77 18 -73 60
1 22 8 49 13 60 8 13 8 20 -1 23 -6 2 -11 17 -11 34 0 21 -11 41 -35 65 -31
31 -36 43 -41 97 -2 33 -7 80 -10 103 -5 38 2 57 70 194 59 118 76 161 76 194
0 86 -25 97 -79 34z"/>
<path d="M8515 14070 c3 -5 8 -10 11 -10 2 0 4 5 4 10 0 6 -5 10 -11 10 -5 0
-7 -4 -4 -10z"/>
<path d="M9356 12434 c-7 -18 19 -54 38 -54 6 0 17 -14 25 -31 20 -46 27 -25
7 23 -27 65 -32 73 -48 76 -9 2 -18 -5 -22 -14z"/>
<path d="M8970 12430 c0 -5 5 -10 11 -10 5 0 7 5 4 10 -3 6 -8 10 -11 10 -2 0
-4 -4 -4 -10z"/>
<path d="M9040 12382 c12 -16 25 -44 29 -63 8 -39 28 -49 39 -18 18 48 -6 86
-67 104 l-23 7 22 -30z"/>
<path d="M7901 12177 c-28 -57 -51 -114 -51 -127 0 -21 3 -20 35 16 48 54 85
131 85 176 0 21 -4 38 -9 38 -5 0 -32 -47 -60 -103z"/>
<path d="M8200 11929 c0 -9 9 -51 20 -95 24 -92 17 -106 -48 -97 -23 3 -53 -1
-76 -11 -21 -9 -47 -16 -57 -16 -37 0 -45 -60 -11 -87 9 -7 11 -13 5 -13 -6 0
-4 -13 5 -35 18 -39 29 -42 58 -20 59 44 124 -29 124 -141 0 -32 13 -44 50
-44 10 0 42 -12 70 -26 35 -18 55 -23 62 -16 7 7 4 15 -11 24 -11 7 -21 18
-21 25 0 8 -13 13 -34 13 -22 0 -36 6 -40 17 -7 17 37 192 56 228 6 11 15 35
19 53 8 37 -9 52 -59 52 -34 0 -58 23 -67 65 -12 51 -44 141 -45 124z"/>
<path d="M8398 11416 c-6 -29 16 -25 33 5 8 16 6 19 -9 19 -13 0 -21 -9 -24
-24z"/>
<path d="M5870 11334 c0 -3 7 -12 15 -20 13 -14 15 -13 15 5 0 12 -6 21 -15
21 -8 0 -15 -3 -15 -6z"/>
<path d="M9027 11312 c-16 -28 -16 -29 8 -42 47 -25 99 22 63 58 -21 21 -53
14 -71 -16z"/>
<path d="M5752 11318 c-7 -7 -12 -19 -13 -27 0 -13 -2 -13 -7 1 -6 15 -9 15
-27 2 -15 -11 -17 -18 -9 -31 15 -24 32 -27 37 -6 3 10 5 2 6 -19 2 -61 79
-111 112 -72 14 17 13 92 -1 110 -6 6 -7 14 -3 18 4 4 0 4 -9 1 -11 -4 -23 1
-35 14 -20 24 -34 26 -51 9z"/>
<path d="M4025 11312 c-56 -19 -112 -72 -75 -72 6 0 10 4 10 9 0 5 13 14 29
21 23 9 76 53 60 49 -2 -1 -13 -4 -24 -7z"/>
<path d="M8580 11301 c-8 -17 -17 -20 -38 -15 -21 5 -25 4 -15 -6 6 -7 9 -19
6 -26 -8 -21 57 -18 85 4 l23 18 -25 23 -24 23 -12 -21z"/>
<path d="M8460 11303 c0 -9 40 -36 45 -31 2 2 -8 11 -21 21 -13 10 -24 14 -24
10z"/>
<path d="M3907 11222 c-16 -18 -16 -19 13 -19 17 0 27 3 22 6 -5 3 -11 12 -13
19 -3 10 -9 9 -22 -6z"/>
<path d="M6167 11204 c28 -21 31 -29 22 -45 -5 -11 -14 -17 -20 -14 -5 4 -9
-5 -9 -18 0 -14 7 -28 16 -31 9 -3 14 -12 11 -20 -3 -8 3 -22 14 -32 11 -10
18 -22 16 -28 -3 -6 3 -19 12 -29 8 -10 20 -32 26 -50 7 -20 24 -38 53 -54 49
-28 66 -24 52 12 -5 14 -6 25 -1 25 14 0 40 46 46 80 4 22 -1 42 -15 66 -12
18 -24 33 -28 32 -29 -6 -76 40 -61 58 12 15 -25 26 -39 12 -6 -6 -23 3 -47
26 -20 20 -46 36 -58 36 -20 0 -19 -3 10 -26z"/>
<path d="M6325 11150 c3 -5 8 -10 11 -10 2 0 4 5 4 10 0 6 -5 10 -11 10 -5 0
-7 -4 -4 -10z"/>
<path d="M8259 10812 c-23 -10 -7 -50 23 -56 97 -20 105 -17 80 26 -14 24 -21
28 -46 22 -19 -4 -26 -3 -22 5 8 12 -10 13 -35 3z"/>
<path d="M8740 9190 c0 -5 5 -10 10 -10 6 0 10 5 10 10 0 6 -4 10 -10 10 -5 0
-10 -4 -10 -10z"/>
<path d="M8762 9151 c-15 -9 -5 -41 12 -41 6 0 21 -3 34 -6 12 -4 22 -2 22 4
0 17 -55 51 -68 43z"/>
<path d="M9631 7688 c0 -7 13 -23 30 -36 l29 -24 0 26 c0 15 -8 30 -19 36 -26
14 -41 13 -40 -2z"/>
<path d="M9700 7685 c0 -8 2 -15 4 -15 2 0 6 7 10 15 3 8 1 15 -4 15 -6 0 -10
-7 -10 -15z"/>
<path d="M9490 7440 c6 -11 16 -17 25 -13 12 4 13 9 4 19 -6 8 -18 14 -26 14
-11 0 -11 -4 -3 -20z"/>
<path d="M9432 7429 c2 -7 10 -15 17 -17 8 -3 12 1 9 9 -2 7 -10 15 -17 17 -8
3 -12 -1 -9 -9z"/>
<path d="M9797 6491 c3 -12 12 -21 20 -21 20 0 12 34 -9 38 -12 2 -15 -2 -11
-17z"/>
<path d="M9671 6251 c-10 -7 -11 -10 0 -16 9 -6 7 -10 -9 -16 -13 -5 -22 -17
-22 -29 0 -29 17 -24 35 11 19 36 17 63 -4 50z"/>
<path d="M8306 4559 c2 -4 -1 -9 -8 -11 -7 -3 -8 -7 -2 -11 5 -3 15 2 21 12 9
14 8 18 -3 18 -7 0 -11 -4 -8 -8z"/>
<path d="M8263 4513 c-3 -10 -8 -22 -11 -27 -3 -5 0 -6 6 -2 7 4 12 13 12 21
0 7 6 16 13 18 9 4 9 6 -1 6 -7 1 -15 -7 -19 -16z"/>
<path d="M8040 4290 c-9 -6 -10 -10 -3 -10 6 0 15 5 18 10 8 12 4 12 -15 0z"/>
<path d="M12315 3486 c-11 -7 -37 -19 -58 -25 -37 -13 -72 -51 -45 -51 21 0
141 64 146 78 5 16 -19 15 -43 -2z"/>
<path d="M12101 3449 c-56 -22 -121 -98 -121 -140 0 -24 11 -24 56 0 20 11 42
17 50 14 9 -3 14 2 14 13 0 9 7 25 15 34 18 20 32 90 19 89 -5 0 -20 -5 -33
-10z"/>
<path d="M10860 3415 c7 -8 17 -15 22 -15 6 0 5 7 -2 15 -7 8 -17 15 -22 15
-6 0 -5 -7 2 -15z"/>
<path d="M12341 3315 c-18 -8 -48 -15 -66 -15 -18 0 -38 -7 -45 -15 -7 -8 -23
-15 -36 -15 -19 0 -24 -5 -24 -24 0 -15 -23 -53 -59 -98 -33 -40 -57 -75 -54
-78 3 -3 8 1 10 8 3 6 9 12 15 12 5 0 24 11 41 24 18 13 58 36 89 51 31 15 62
33 69 41 18 21 33 17 58 -17 30 -40 39 -30 12 14 -33 53 -28 73 24 96 25 11
45 22 45 25 0 11 -45 5 -79 -9z"/>
<path d="M12340 3095 c-14 -7 -44 -21 -67 -31 -42 -17 -183 -150 -183 -173 0
-13 -5 -14 54 4 26 8 63 24 81 35 37 23 165 155 165 170 0 13 -19 11 -50 -5z"/>
<path d="M11930 2941 c-11 -22 0 -34 24 -25 20 8 21 44 1 44 -8 0 -19 -9 -25
-19z"/>
<path d="M12350 2214 c1 -5 18 -45 40 -89 42 -86 54 -87 18 -2 -21 50 -58 109
-58 91z"/>
<path d="M9156 1369 c-7 -37 -3 -44 19 -35 12 4 14 12 10 28 -12 38 -22 41
-29 7z"/>
<path d="M10070 1214 c-11 -26 -20 -56 -20 -67 0 -20 0 -20 19 -1 10 10 17 20
16 22 -2 2 8 20 21 39 29 43 30 53 4 53 -13 0 -25 -14 -40 -46z"/>
<path d="M8850 1000 c0 -5 7 -7 15 -4 8 4 15 8 15 10 0 2 -7 4 -15 4 -8 0 -15
-4 -15 -10z"/>
<path d="M9515 800 c3 -5 8 -10 11 -10 2 0 4 5 4 10 0 6 -5 10 -11 10 -5 0 -7
-4 -4 -10z"/>
<path d="M12237 47 c-4 -10 -11 -15 -17 -12 -5 3 -10 -2 -10 -11 0 -10 3 -14
7 -11 3 4 12 2 20 -5 18 -14 20 -9 13 27 -4 25 -7 27 -13 12z"/>
</g>
</svg>
